<?xml version="1.0" standalone="no"?>
<!DOCTYPE svg PUBLIC "-//W3C//DTD SVG 20010904//EN"
 "http://www.w3.org/TR/2001/REC-SVG-20010904/DTD/svg10.dtd">
<svg version="1.0" xmlns="http://www.w3.org/2000/svg"
 width="160.000000pt" height="160.000000pt" viewBox="0 0 160.000000 160.000000"
 preserveAspectRatio="xMidYMid meet">
<metadata>
Created by potrace 1.14, written by Peter Selinger 2001-2017
</metadata>
<g transform="translate(0.000000,160.000000) scale(0.100000,-0.100000)"
fill="#000000" stroke="none">
<path d="M686 1494 c-44 -8 -87 -21 -96 -29 -9 -8 -21 -15 -27 -15 -26 0 -95
-65 -140 -132 -92 -138 -152 -330 -169 -542 -6 -82 -5 -89 11 -83 9 4 59 7
112 7 87 0 94 2 88 18 -5 9 -15 42 -23 73 l-14 57 37 83 c20 46 46 102 57 124
12 22 34 64 50 94 15 30 28 48 28 42 0 -7 7 -10 18 -7 11 4 74 -21 162 -64 79
-38 149 -70 157 -70 7 0 10 -6 6 -16 -5 -14 -1 -16 30 -10 49 9 96 -12 144
-64 21 -24 42 -49 47 -58 11 -19 25 -142 15 -136 -4 2 -7 -12 -7 -30 l0 -35
104 -3 104 -3 0 55 c0 75 -26 228 -51 303 -42 127 -97 225 -169 301 -87 92
-161 133 -262 146 -93 12 -116 11 -212 -6z"/>
<path d="M538 1042 c-34 -20 -37 -37 -5 -25 12 4 52 8 90 8 37 0 67 0 67 1 0
2 -7 10 -16 18 -21 21 -101 20 -136 -2z"/>
<path d="M555 965 c-36 -19 -75 -64 -75 -87 0 -28 14 -21 35 18 10 19 31 42
46 50 40 20 46 17 15 -7 -37 -29 -33 -83 7 -113 26 -19 30 -19 55 -5 39 21 51
63 30 100 -17 28 -17 29 2 19 11 -6 29 -27 39 -48 11 -20 20 -31 21 -23 0 20
-38 78 -63 96 -27 19 -74 19 -112 0z m50 -55 c-5 -8 -11 -8 -17 -2 -6 6 -7 16
-3 22 5 8 11 8 17 2 6 -6 7 -16 3 -22z m45 -70 c0 -5 -5 -10 -11 -10 -5 0 -7
5 -4 10 3 6 8 10 11 10 2 0 4 -4 4 -10z"/>
<path d="M963 960 c-31 -19 -63 -66 -63 -92 0 -7 11 5 24 26 39 66 94 82 152
47 17 -11 38 -33 45 -50 15 -33 29 -41 29 -15 0 24 -38 72 -70 89 -39 20 -79
19 -117 -5z"/>
<path d="M976 934 c-51 -50 -7 -137 61 -120 47 12 61 102 20 128 -20 13 -65 9
-81 -8z m36 -26 c-15 -15 -26 -4 -18 18 5 13 9 15 18 6 9 -9 9 -15 0 -24z m43
-68 c-3 -5 -11 -10 -16 -10 -6 0 -7 5 -4 10 3 6 11 10 16 10 6 0 7 -4 4 -10z"/>
<path d="M246 655 c-3 -9 -1 -93 5 -187 l12 -169 -31 -32 c-17 -18 -42 -57
-56 -88 -26 -56 -53 -165 -44 -174 3 -3 313 -4 690 -3 l685 3 -14 55 c-17 68
-67 178 -95 207 -21 22 -21 26 -9 196 6 96 8 182 5 192 -7 17 -20 17 -218 9
-277 -11 -552 -11 -757 -1 -151 8 -167 7 -173 -8z m612 -253 c-3 -12 2 -24 14
-31 16 -10 17 -15 7 -27 -9 -12 -9 -20 1 -39 19 -35 -7 -63 -55 -60 -49 3 -75
29 -75 76 0 41 24 64 54 53 10 -4 16 -1 16 8 0 16 19 38 33 38 5 0 7 -8 5 -18z"/>
</g>
</svg>
